<?xml version="1.0" encoding="UTF-8"?>
<svg version="1.1" xmlns="http://www.w3.org/2000/svg" width="500" height="500">
<path d="M0 0 C165 0 330 0 500 0 C500 165 500 330 500 500 C335 500 170 500 0 500 C0 335 0 170 0 0 Z " fill="#0369a1" transform="translate(0,0)"/>
<path d="M0 0 C3.18256788 0.06931182 3.93424156 0.22826274 6.5625 2.25 C12.03423962 9.69156588 8.96281656 21.29705806 7.69921875 29.85546875 C6.75110643 36.77556193 6.33137684 43.75646101 5.82275391 50.71972656 C5.45527827 55.65483959 5.07781109 60.50976108 4.125 65.375 C4.64449219 64.96507812 5.16398438 64.55515625 5.69921875 64.1328125 C14.61369216 57.24510477 14.61369216 57.24510477 20.75 57.5625 C24.17509354 58.38705956 24.90517595 58.87937963 27.125 61.375 C27.16238281 60.19164062 27.19976562 59.00828125 27.23828125 57.7890625 C27.71213447 45.45321413 28.244588 34.81043775 37.125 25.375 C40.61624017 23.04750655 42.01722251 22.87200684 46.125 23.375 C48.5 24.6875 48.5 24.6875 50.125 27.375 C50.87257092 33.19670851 50.23130603 38.31989025 48.57421875 43.92578125 C47.91467726 47.52171617 47.93428254 51.10663423 47.9375 54.75 C47.9365332 55.82254028 47.9365332 55.82254028 47.93554688 56.91674805 C47.91849605 60.77370108 47.91849605 60.77370108 49.125 64.375 C51.50397003 64.42010361 51.50397003 64.42010361 54.125 63.375 C55.69808593 61.04074345 56.89731485 58.88736997 58.125 56.375 C64.51153846 43.79706731 64.51153846 43.79706731 69.125 41.375 C72.67421545 40.86796922 74.34765422 40.83127514 77.30859375 42.90234375 C77.90800781 43.38832031 78.50742187 43.87429687 79.125 44.375 C79.14481934 43.64498779 79.16463867 42.91497559 79.18505859 42.1628418 C79.28140565 38.79575166 79.39063266 35.42919141 79.5 32.0625 C79.5309375 30.91458984 79.561875 29.76667969 79.59375 28.58398438 C80.23073693 9.84595214 80.23073693 9.84595214 84.125 3.375 C86.99970493 1.93764754 88.94394588 1.99327351 92.125 2.375 C96.33787785 6.70173941 97.24826588 9.57198554 97.44140625 15.4765625 C97.48330078 16.68828125 97.52519531 17.9 97.56835938 19.1484375 C97.60767578 20.41945312 97.64699219 21.69046875 97.6875 23 C97.73068359 24.27875 97.77386719 25.5575 97.81835938 26.875 C97.92469886 30.04155348 98.02672833 33.20818753 98.125 36.375 C99.07375 35.570625 100.0225 34.76625 101 33.9375 C103.89854669 31.4800365 105.46931018 30.4380471 109.375 30.0625 C114.88005421 30.52125452 117.69622833 32.82716403 121.375 36.8125 C125.47703351 42.81904907 125.84155372 48.28111813 125.125 55.375 C122.34918442 68.37086384 117.07184173 79.51177566 106.125 87.375 C100.83771878 90.45123634 95.16891167 91.60904627 89.125 90.375 C86.3203125 88.34765625 86.3203125 88.34765625 84.125 86.375 C83.97804688 87.6434375 83.97804688 87.6434375 83.828125 88.9375 C82.91261808 95.8827249 81.84518928 101.40015055 78.125 107.375 C75.125 109.375 75.125 109.375 72.75 110 C69.59985533 109.24996555 69.25517637 108.6221912 67.5 106 C63.66471232 99.16423489 61.61390621 92.21177138 62.125 84.375 C61.41537109 84.89900391 61.41537109 84.89900391 60.69140625 85.43359375 C55.73464808 88.84438446 51.26197914 91.08311298 45.125 90.375 C38.87522569 88.01447373 35.74467546 83.74020424 32.125 78.375 C32.14594727 79.14166992 32.16689453 79.90833984 32.18847656 80.69824219 C32.27165158 84.1736946 32.32366575 87.64893763 32.375 91.125 C32.42527344 92.93484375 32.42527344 92.93484375 32.4765625 94.78125 C32.48945313 95.94140625 32.50234375 97.1015625 32.515625 98.296875 C32.53657227 99.36518555 32.55751953 100.43349609 32.57910156 101.53417969 C32.01486702 105.06398243 30.92957011 106.22821271 28.125 108.375 C25.625 108.5625 25.625 108.5625 23.125 107.375 C19.29423914 101.82188154 18.03140702 96.52048915 16.875 89.9375 C16.61589844 88.55401367 16.61589844 88.55401367 16.3515625 87.14257812 C15.93112776 84.88858076 15.52260735 82.63311568 15.125 80.375 C13.20613331 79.77515369 13.20613331 79.77515369 11.125 79.375 C9.43119662 80.39126307 9.43119662 80.39126307 7.9375 82 C3.79476324 85.7878985 -1.12695162 90.15822855 -6.96875 90.49609375 C-11.315 89.935 -11.315 89.935 -12.875 88.375 C-12.98457031 89.03886719 -13.09414063 89.70273437 -13.20703125 90.38671875 C-14.08636023 95.28379478 -14.86951714 99.27661428 -17.875 103.375 C-20.83069268 103.30626296 -23.05091115 103.14186046 -25.28125 101.06640625 C-31.00754235 93.50700202 -32.43299831 84.26345473 -33.9375 75.125 C-34.25667146 73.20228034 -34.5807304 71.28036431 -34.91015625 69.359375 C-35.0481665 68.52116211 -35.18617676 67.68294922 -35.32836914 66.81933594 C-35.91591715 64.19203326 -36.81426729 61.84535802 -37.875 59.375 C-44.1534835 58.87272132 -47.84544031 59.16420584 -52.875 63.375 C-53.91914063 64.2103125 -53.91914063 64.2103125 -54.984375 65.0625 C-57.55821637 68.21066961 -57.51536275 70.60347124 -57.8125 74.625 C-58.42390659 81.08698905 -59.88235175 85.22658515 -63.875 90.375 C-68.09412747 89.8955537 -70.67163178 89.20874881 -73.875 86.375 C-74.865 87.695 -75.855 89.015 -76.875 90.375 C-80.46831694 90.17537128 -81.67328955 89.58761372 -84.1875 86.9375 C-86.39467498 82.27790837 -86.23531186 78.43938342 -85.875 73.375 C-86.535 73.375 -87.195 73.375 -87.875 73.375 C-88.21337891 74.26445312 -88.21337891 74.26445312 -88.55859375 75.171875 C-91.1968133 79.58717418 -96.25693497 81.47884085 -100.875 83.375 C-106.12390412 84.48264276 -110.76752097 83.76921733 -115.30078125 80.86328125 C-118.3787521 77.95333858 -120.11215993 74.17688549 -121.875 70.375 C-122.31199219 71.17164063 -122.31199219 71.17164063 -122.7578125 71.984375 C-126.2223569 77.95472196 -129.51586315 81.05769143 -136.0625 83.625 C-143.5602844 85.09997398 -150.45917604 85.53016118 -157.2265625 81.56640625 C-162.06883554 78.06665915 -164.64124879 73.13838064 -165.875 67.375 C-167.13003392 55.39761104 -165.23633661 45.44723525 -157.625 35.9375 C-151.68805374 29.84799838 -146.4048635 27.09883527 -137.8125 26.75 C-131.66825371 27.00159629 -127.26013457 27.92646589 -122.875 32.375 C-120.95449473 34.92780922 -119.33933121 37.53785828 -117.875 40.375 C-117.47410156 39.79492188 -117.07320312 39.21484375 -116.66015625 38.6171875 C-111.8989529 32.07458153 -106.6834522 26.9778174 -98.875 24.375 C-93.59277793 23.97634173 -90.30536789 24.42142141 -85.875 27.375 C-81.92505901 31.2826504 -78.49038067 35.4519305 -75.875 40.375 C-73.24735784 37.74735784 -71.89087026 34.75047361 -70.19140625 31.46875 C-68.875 29.375 -68.875 29.375 -65.875 27.375 C-63.375 26.9375 -63.375 26.9375 -60.875 27.375 C-58.17727681 31.01193052 -57.32188933 34.24677472 -56.6875 38.6875 C-56.52894531 39.75613281 -56.37039062 40.82476562 -56.20703125 41.92578125 C-56.04267578 43.13814453 -56.04267578 43.13814453 -55.875 44.375 C-55.27171875 43.96507812 -54.6684375 43.55515625 -54.046875 43.1328125 C-53.24765625 42.59398437 -52.4484375 42.05515625 -51.625 41.5 C-50.83609375 40.96632812 -50.0471875 40.43265625 -49.234375 39.8828125 C-43.39453277 36.15072789 -38.7976526 35.56116131 -31.875 36.375 C-25.2109552 39.64644017 -21.93620633 44.79340639 -18.875 51.375 C-18.545 51.375 -18.215 51.375 -17.875 51.375 C-17.77477539 50.64087891 -17.67455078 49.90675781 -17.57128906 49.15039062 C-10.931085 1.05784694 -10.931085 1.05784694 0 0 Z " fill="#2D2D2D" transform="translate(282.875,169.625)"/>
<path d="M0 0 C1.17369141 0.06574219 1.17369141 0.06574219 2.37109375 0.1328125 C4.5625 0.875 4.5625 0.875 6.3203125 3.1015625 C10.44947773 12.32076788 6.55421666 23.44254501 4.04321289 32.71020508 C2.88463862 37.92761393 2.44119671 43.02248596 2.49658203 48.35766602 C2.50634064 49.59907852 2.51609924 50.84049103 2.52615356 52.11952209 C2.53719809 53.09939433 2.53719809 53.09939433 2.54846573 54.09906197 C2.5706878 56.16377665 2.58463603 58.22839697 2.59616089 60.29319763 C2.62957338 66.1590553 2.67142137 72.02475552 2.73388672 77.89038086 C2.77163867 81.49052979 2.79458558 85.09052224 2.80819321 88.69083977 C2.81621476 90.0563489 2.82977714 91.42183773 2.84912491 92.78723335 C2.87575266 94.69858842 2.88187457 96.61019542 2.88720703 98.52172852 C2.89688507 99.60647964 2.90656311 100.69123077 2.91653442 101.80885315 C2.39436894 106.33111413 0.77637514 109.66112486 -2.4375 112.875 C-5.8125 112.875 -5.8125 112.875 -9.4375 111.875 C-12.87537026 107.63388902 -14.42496674 103.37071501 -15.625 98.125 C-15.78935547 97.47273438 -15.95371094 96.82046875 -16.12304688 96.1484375 C-21.01189655 75.80132226 -19.02628353 53.31069821 -17.125 32.625 C-17.06614624 31.95458679 -17.00729248 31.28417358 -16.94665527 30.59344482 C-14.97562615 8.65206756 -14.97562615 8.65206756 -6.4375 0.875 C-4.01597262 -0.33576369 -2.68326913 -0.20267714 0 0 Z " fill="#2F2F2E" transform="translate(110.4375,169.125)"/>
<path d="M0 0 C1 1 1 1 1.23046875 3.7109375 C0.77126919 10.26425997 -3.11867324 16.11867324 -7.6875 20.6875 C-10 22 -10 22 -13 22 C-12.55122551 14.44820855 -11.79633718 7.72844958 -7.125 1.5 C-4.53273851 -0.32983164 -3.10942257 -0.42019224 0 0 Z " fill="#DBDAD5" transform="translate(391,219)"/>
<path d="M0 0 C0.97591583 3.38317487 0.85856655 5.5657338 0 9 C-1.093125 8.835 -2.18625 8.67 -3.3125 8.5 C-8.88712356 8.43056519 -12.24989005 11.75786926 -16.38671875 15.15234375 C-19.05544594 17.03920169 -20.76724801 17.73390658 -24 18 C-25 17 -25 17 -25.25 13.625 C-25 10 -25 10 -23.83203125 8.328125 C-21.38170231 6.55176713 -19.43547202 6.44551331 -16.4375 6.125 C-10.21874841 5.24634569 -5.40046488 3.13035796 0 0 Z " fill="#DAD8D3" transform="translate(160,221)"/>
<path d="M0 0 C0.4589303 5.73662874 -0.42345072 8.50376662 -4 13 C-4.474375 13.639375 -4.94875 14.27875 -5.4375 14.9375 C-7 16 -7 16 -9.6875 15.6875 C-10.450625 15.460625 -11.21375 15.23375 -12 15 C-12.50632171 9.68362203 -11.24708376 7.17482197 -8 3 C-7.525625 2.38125 -7.05125 1.7625 -6.5625 1.125 C-4.36206924 -0.45931015 -2.63861736 -0.21394195 0 0 Z " fill="#DEDCD7" transform="translate(194,212)"/>
<path d="M0 0 C0.99 0 1.98 0 3 0 C3 2.97 3 5.94 3 9 C2.34 9 1.68 9 1 9 C0.67 8.34 0.34 7.68 0 7 C-0.33 7.66 -0.66 8.32 -1 9 C-2.65 9 -4.3 9 -6 9 C-6 6.36 -6 3.72 -6 1 C-5.01 1 -4.02 1 -3 1 C-2.67 1.66 -2.34 2.32 -2 3 C-1.34 2.01 -0.68 1.02 0 0 Z " fill="#464645" transform="translate(304,308)"/>
<path d="M0 0 C4.55555556 0.55555556 4.55555556 0.55555556 6 2 C6.1875 4.4375 6.1875 4.4375 6 7 C5.34 7.66 4.68 8.32 4 9 C-0.55555556 8.44444444 -0.55555556 8.44444444 -2 7 C-2.1875 4.5625 -2.1875 4.5625 -2 2 C-1.34 1.34 -0.68 0.68 0 0 Z " fill="#454544" transform="translate(281,308)"/>
<path d="M0 0 C3 1 3 1 4 3 C4.33 2.01 4.66 1.02 5 0 C5.66 0 6.32 0 7 0 C7 2.97 7 5.94 7 9 C6.01 9 5.02 9 4 9 C3.67 8.34 3.34 7.68 3 7 C2.67 7.66 2.34 8.32 2 9 C1.34 9 0.68 9 0 9 C0 6.03 0 3.06 0 0 Z " fill="#4B4A49" transform="translate(215,308)"/>
<path d="M0 0 C3 1 3 1 4 3 C4.33 2.01 4.66 1.02 5 0 C5.66 0 6.32 0 7 0 C7 2.97 7 5.94 7 9 C6.01 9 5.02 9 4 9 C3.67 8.34 3.34 7.68 3 7 C2.67 7.66 2.34 8.32 2 9 C1.34 9 0.68 9 0 9 C0 6.03 0 3.06 0 0 Z " fill="#4B4A49" transform="translate(201,308)"/>
<path d="M0 0 C2.31 0 4.62 0 7 0 C7 0.66 7 1.32 7 2 C5.68 2 4.36 2 3 2 C3 2.66 3 3.32 3 4 C3.99 4.33 4.98 4.66 6 5 C5.01 5 4.02 5 3 5 C3 5.66 3 6.32 3 7 C4.32 7 5.64 7 7 7 C7 7.66 7 8.32 7 9 C4.69 9 2.38 9 0 9 C0 6.03 0 3.06 0 0 Z " fill="#5E5D5C" transform="translate(174,308)"/>
<path d="M0 0 C2.5 0.3125 2.5 0.3125 5 1 C5.33 1.66 5.66 2.32 6 3 C4.35 3 2.7 3 1 3 C0.67 4.32 0.34 5.64 0 7 C0.66 6.67 1.32 6.34 2 6 C2 5.34 2 4.68 2 4 C3.32 4 4.64 4 6 4 C6 5.65 6 7.3 6 9 C3.125 9.125 3.125 9.125 0 9 C-0.66 8.34 -1.32 7.68 -2 7 C-1.43181818 1.43181818 -1.43181818 1.43181818 0 0 Z " fill="#4C4C4B" transform="translate(226,308)"/>
<path d="M0 0 C1.65 0 3.3 0 5 0 C5.70074844 3.153368 6 5.72724974 6 9 C5.34 9 4.68 9 4 9 C3.67 8.34 3.34 7.68 3 7 C2.67 7.66 2.34 8.32 2 9 C1.34 9 0.68 9 0 9 C0 6.03 0 3.06 0 0 Z " fill="#646362" transform="translate(192,308)"/>
<path d="M0 0 C2.375 -0.125 2.375 -0.125 5 0 C5.66 0.66 6.32 1.32 7 2 C6.625 4.125 6.625 4.125 6 6 C4.68 6 3.36 6 2 6 C2 6.99 2 7.98 2 9 C1.34 9 0.68 9 0 9 C0 6.03 0 3.06 0 0 Z " fill="#444443" transform="translate(238,308)"/>
<path d="M0 0 C1.65 0.33 3.3 0.66 5 1 C5 1.66 5 2.32 5 3 C3.68 2.67 2.36 2.34 1 2 C1 2.66 1 3.32 1 4 C2.32 4.33 3.64 4.66 5 5 C4.67 6.32 4.34 7.64 4 9 C2.35 8.67 0.7 8.34 -1 8 C-1 4.88742431 -0.82638376 2.89234315 0 0 Z " fill="#4E4E4D" transform="translate(323,308)"/>
<path d="M0 0 C0.99 0.33 1.98 0.66 3 1 C3.73046875 2.84765625 3.73046875 2.84765625 4.1875 5.0625 C4.34605469 5.79597656 4.50460938 6.52945312 4.66796875 7.28515625 C4.83232422 8.13400391 4.83232422 8.13400391 5 9 C4.34 9 3.68 9 3 9 C3 8.34 3 7.68 3 7 C2.01 7 1.02 7 0 7 C0 7.66 0 8.32 0 9 C-0.99 8.67 -1.98 8.34 -3 8 C-2.01 5.36 -1.02 2.72 0 0 Z " fill="#50504F" transform="translate(185,308)"/>
<path d="M0 0 C0.99 0.33 1.98 0.66 3 1 C3.73046875 2.84765625 3.73046875 2.84765625 4.1875 5.0625 C4.34605469 5.79597656 4.50460938 6.52945312 4.66796875 7.28515625 C4.83232422 8.13400391 4.83232422 8.13400391 5 9 C4.34 9 3.68 9 3 9 C3 8.34 3 7.68 3 7 C2.01 7 1.02 7 0 7 C0 7.66 0 8.32 0 9 C-0.99 8.67 -1.98 8.34 -3 8 C-2.01 5.36 -1.02 2.72 0 0 Z " fill="#50504F" transform="translate(156,308)"/>
<path d="M0 0 C0.66 0 1.32 0 2 0 C2.99 2.97 3.98 5.94 5 9 C4.01 9 3.02 9 2 9 C2 8.34 2 7.68 2 7 C1.01 7 0.02 7 -1 7 C-1 7.66 -1 8.32 -1 9 C-1.66 9 -2.32 9 -3 9 C-2.44271087 5.65626525 -1.64826111 2.96687001 0 0 Z " fill="#50504F" transform="translate(257,308)"/>
<path d="M0 0 C1.65 0 3.3 0 5 0 C5.33 1.32 5.66 2.64 6 4 C5.67 3.34 5.34 2.68 5 2 C4.01 2 3.02 2 2 2 C2 2.99 2 3.98 2 5 C2.99 5 3.98 5 5 5 C5.66 6.32 6.32 7.64 7 9 C6.01 9 5.02 9 4 9 C3.67 8.34 3.34 7.68 3 7 C2.67 7.66 2.34 8.32 2 9 C1.34 9 0.68 9 0 9 C0 6.03 0 3.06 0 0 Z " fill="#434242" transform="translate(289,308)"/>
<path d="M0 0 C0.99 0 1.98 0 3 0 C3 2.31 3 4.62 3 7 C3.99 7 4.98 7 6 7 C6 7.66 6 8.32 6 9 C4.02 9 2.04 9 0 9 C0 6.03 0 3.06 0 0 Z " fill="#0369a1" transform="translate(246,308)"/>
<path d="M0 0 C1.32 0.33 2.64 0.66 4 1 C3.01 1 2.02 1 1 1 C1 3.64 1 6.28 1 9 C0.34 8.01 -0.32 7.02 -1 6 C-1.99 6.495 -1.99 6.495 -3 7 C-3 6.34 -3 5.68 -3 5 C-3.99 5 -4.98 5 -6 5 C-6 4.01 -6 3.02 -6 2 C-4.35 2 -2.7 2 -1 2 C-0.67 1.34 -0.34 0.68 0 0 Z " fill="#9C9B98" transform="translate(297,308)"/>
<path d="M0 0 C1.98 0 3.96 0 6 0 C6 0.66 6 1.32 6 2 C4.68 2 3.36 2 2 2 C2 2.66 2 3.32 2 4 C2.99 4.33 3.98 4.66 5 5 C4.01 5 3.02 5 2 5 C2 6.32 2 7.64 2 9 C1.34 9 0.68 9 0 9 C0 6.03 0 3.06 0 0 Z " fill="#444343" transform="translate(272,308)"/>
<path d="M0 0 C2.31 0 4.62 0 7 0 C7 0.66 7 1.32 7 2 C6.01 2 5.02 2 4 2 C4 4.31 4 6.62 4 9 C3.34 9 2.68 9 2 9 C2 6.69 2 4.38 2 2 C1.34 2 0.68 2 0 2 C0 1.34 0 0.68 0 0 Z " fill="#565655" transform="translate(263,308)"/>
<path d="M0 0 C0.66 0 1.32 0 2 0 C1.01 2.97 0.02 5.94 -1 9 C-1.66 9 -2.32 9 -3 9 C-3.66 6.36 -4.32 3.72 -5 1 C-4.34 1 -3.68 1 -3 1 C-3 1.66 -3 2.32 -3 3 C-2.34 3 -1.68 3 -1 3 C-0.67 2.01 -0.34 1.02 0 0 Z " fill="#484746" transform="translate(341,308)"/>
<path d="M0 0 C0.66 0 1.32 0 2 0 C2 2.31 2 4.62 2 7 C3.32 7 4.64 7 6 7 C6 7.66 6 8.32 6 9 C4.02 9 2.04 9 0 9 C0 6.03 0 3.06 0 0 Z " fill="#484847" transform="translate(167,308)"/>
<path d="M0 0 C0.763125 0.0825 1.52625 0.165 2.3125 0.25 C1.9825 1.24 1.6525 2.23 1.3125 3.25 C-0.9975 3.58 -3.3075 3.91 -5.6875 4.25 C-3.34903846 0.31153846 -3.34903846 0.31153846 0 0 Z " fill="#D6D4CF" transform="translate(148.6875,213.75)"/>
<path d="M0 0 C1.65 0 3.3 0 5 0 C5.33 1.32 5.66 2.64 6 4 C5.01 4.495 5.01 4.495 4 5 C3.01 4.67 2.02 4.34 1 4 C0.3125 1.9375 0.3125 1.9375 0 0 Z " fill="#767573" transform="translate(239,309)"/>
<path d="M0 0 C2.04119788 1.61594832 4.04072937 3.2856382 6 5 C6 5.66 6 6.32 6 7 C5.34 7 4.68 7 4 7 C3.67 6.34 3.34 5.68 3 5 C2.67 5.66 2.34 6.32 2 7 C1.34 7 0.68 7 0 7 C0 4.69 0 2.38 0 0 Z " fill="#383837" transform="translate(192,310)"/>
<path d="M0 0 C1.32 0 2.64 0 4 0 C4 1.65 4 3.3 4 5 C2.35 4.67 0.7 4.34 -1 4 C-0.67 2.68 -0.34 1.36 0 0 Z " fill="#595857" transform="translate(228,312)"/>
<path d="M0 0 C0.99 0.33 1.98 0.66 3 1 C3.33 1.99 3.66 2.98 4 4 C3.01 4.495 3.01 4.495 2 5 C1.34 6.32 0.68 7.64 0 9 C0 6.03 0 3.06 0 0 Z " fill="#3E3E3D" transform="translate(215,308)"/>
<path d="M0 0 C0.99 0.33 1.98 0.66 3 1 C3.33 1.99 3.66 2.98 4 4 C3.01 4.495 3.01 4.495 2 5 C1.34 6.32 0.68 7.64 0 9 C0 6.03 0 3.06 0 0 Z " fill="#3E3E3D" transform="translate(201,308)"/>
<path d="M0 0 C0.99 0.33 1.98 0.66 3 1 C2.67 2.32 2.34 3.64 2 5 C1.01 5 0.02 5 -1 5 C-0.67 3.35 -0.34 1.7 0 0 Z " fill="#D0CECA" transform="translate(282,310)"/>
</svg>
